<?xml version="1.0" encoding="UTF-8" standalone="no"?>
<!DOCTYPE svg PUBLIC "-//W3C//DTD SVG 1.1//EN"
 "http://www.w3.org/Graphics/SVG/1.1/DTD/svg11.dtd">
<!-- Generated by graphviz version 8.1.0 (20230707.0739)
 -->
<!-- Pages: 1 -->
<svg width="537pt" height="332pt"
 viewBox="0.00 0.00 536.86 332.00" xmlns="http://www.w3.org/2000/svg" xmlns:xlink="http://www.w3.org/1999/xlink">
<g id="graph0" class="graph" transform="scale(1 1) rotate(0) translate(4 328)">
<polygon fill="white" stroke="none" points="-4,4 -4,-328 532.86,-328 532.86,4 -4,4"/>
<!-- [root] aws_eip.lb (expand) -->
<g id="node1" class="node">
<title>[root] aws_eip.lb (expand)</title>
<polygon fill="none" stroke="black" points="269.68,-180 195.18,-180 195.18,-144 269.68,-144 269.68,-180"/>
<text text-anchor="middle" x="232.43" y="-156.95" font-family="Times,serif" font-size="14.00">aws_eip.lb</text>
</g>
<!-- [root] aws_instance.myec2 (expand) -->
<g id="node2" class="node">
<title>[root] aws_instance.myec2 (expand)</title>
<polygon fill="none" stroke="black" points="243.68,-108 115.18,-108 115.18,-72 243.68,-72 243.68,-108"/>
<text text-anchor="middle" x="179.43" y="-84.95" font-family="Times,serif" font-size="14.00">aws_instance.myec2</text>
</g>
<!-- [root] aws_eip.lb (expand)&#45;&gt;[root] aws_instance.myec2 (expand) -->
<g id="edge1" class="edge">
<title>[root] aws_eip.lb (expand)&#45;&gt;[root] aws_instance.myec2 (expand)</title>
<path fill="none" stroke="black" d="M219.33,-143.7C213.17,-135.56 205.7,-125.69 198.89,-116.7"/>
<polygon fill="black" stroke="black" points="201.21,-114.96 192.38,-109.1 195.63,-119.19 201.21,-114.96"/>
</g>
<!-- [root] provider[&quot;registry.terraform.io/hashicorp/aws&quot;] -->
<g id="node4" class="node">
<title>[root] provider[&quot;registry.terraform.io/hashicorp/aws&quot;]</title>
<polygon fill="none" stroke="black" points="264.43,-36 0,-18 264.43,0 528.86,-18 264.43,-36"/>
<text text-anchor="middle" x="264.43" y="-12.95" font-family="Times,serif" font-size="14.00">provider[&quot;registry.terraform.io/hashicorp/aws&quot;]</text>
</g>
<!-- [root] aws_instance.myec2 (expand)&#45;&gt;[root] provider[&quot;registry.terraform.io/hashicorp/aws&quot;] -->
<g id="edge2" class="edge">
<title>[root] aws_instance.myec2 (expand)&#45;&gt;[root] provider[&quot;registry.terraform.io/hashicorp/aws&quot;]</title>
<path fill="none" stroke="black" d="M200.44,-71.7C211.36,-62.7 224.85,-51.6 236.62,-41.9"/>
<polygon fill="black" stroke="black" points="238.33,-44.2 243.83,-35.14 233.88,-38.8 238.33,-44.2"/>
</g>
<!-- [root] aws_security_group.allow_tls (expand) -->
<g id="node3" class="node">
<title>[root] aws_security_group.allow_tls (expand)</title>
<polygon fill="none" stroke="black" points="439.43,-108 261.43,-108 261.43,-72 439.43,-72 439.43,-108"/>
<text text-anchor="middle" x="350.43" y="-84.95" font-family="Times,serif" font-size="14.00">aws_security_group.allow_tls</text>
</g>
<!-- [root] aws_security_group.allow_tls (expand)&#45;&gt;[root] provider[&quot;registry.terraform.io/hashicorp/aws&quot;] -->
<g id="edge3" class="edge">
<title>[root] aws_security_group.allow_tls (expand)&#45;&gt;[root] provider[&quot;registry.terraform.io/hashicorp/aws&quot;]</title>
<path fill="none" stroke="black" d="M329.17,-71.7C318.12,-62.7 304.48,-51.6 292.57,-41.9"/>
<polygon fill="black" stroke="black" points="295.23,-38.74 285.27,-35.14 290.81,-44.17 295.23,-38.74"/>
</g>
<!-- [root] provider[&quot;registry.terraform.io/hashicorp/aws&quot;] (close) -->
<g id="node5" class="node">
<title>[root] provider[&quot;registry.terraform.io/hashicorp/aws&quot;] (close)</title>
<ellipse fill="none" stroke="black" cx="264.43" cy="-234" rx="238.16" ry="18"/>
<text text-anchor="middle" x="264.43" y="-228.95" font-family="Times,serif" font-size="14.00">[root] provider[&quot;registry.terraform.io/hashicorp/aws&quot;] (close)</text>
</g>
<!-- [root] provider[&quot;registry.terraform.io/hashicorp/aws&quot;] (close)&#45;&gt;[root] aws_eip.lb (expand) -->
<g id="edge4" class="edge">
<title>[root] provider[&quot;registry.terraform.io/hashicorp/aws&quot;] (close)&#45;&gt;[root] aws_eip.lb (expand)</title>
<path fill="none" stroke="black" d="M256.52,-215.7C252.96,-207.9 248.66,-198.51 244.7,-189.83"/>
<polygon fill="black" stroke="black" points="247.59,-188.74 240.25,-181.1 241.22,-191.65 247.59,-188.74"/>
</g>
<!-- [root] provider[&quot;registry.terraform.io/hashicorp/aws&quot;] (close)&#45;&gt;[root] aws_security_group.allow_tls (expand) -->
<g id="edge5" class="edge">
<title>[root] provider[&quot;registry.terraform.io/hashicorp/aws&quot;] (close)&#45;&gt;[root] aws_security_group.allow_tls (expand)</title>
<path fill="none" stroke="black" d="M274.98,-215.59C289.82,-191.08 317,-146.19 334.37,-117.52"/>
<polygon fill="black" stroke="black" points="337.88,-119.48 340.07,-109.11 331.89,-115.85 337.88,-119.48"/>
</g>
<!-- [root] root -->
<g id="node6" class="node">
<title>[root] root</title>
<ellipse fill="none" stroke="black" cx="264.43" cy="-306" rx="49.3" ry="18"/>
<text text-anchor="middle" x="264.43" y="-300.95" font-family="Times,serif" font-size="14.00">[root] root</text>
</g>
<!-- [root] root&#45;&gt;[root] provider[&quot;registry.terraform.io/hashicorp/aws&quot;] (close) -->
<g id="edge6" class="edge">
<title>[root] root&#45;&gt;[root] provider[&quot;registry.terraform.io/hashicorp/aws&quot;] (close)</title>
<path fill="none" stroke="black" d="M264.43,-287.7C264.43,-280.24 264.43,-271.32 264.43,-262.97"/>
<polygon fill="black" stroke="black" points="267.93,-263.1 264.43,-253.1 260.93,-263.1 267.93,-263.1"/>
</g>
</g>
</svg>
